<svg width="96" height="96" xmlns="http://www.w3.org/2000/svg" xmlns:xlink="http://www.w3.org/1999/xlink" xml:space="preserve" overflow="hidden"><defs><clipPath id="clip0"><rect x="592" y="312" width="96" height="96"/></clipPath></defs><g clip-path="url(#clip0)" transform="translate(-592 -312)"><path d="M641.879 324.914C643.704 325.354 645.492 325.933 647.229 326.646 665.623 334.255 674.367 355.334 666.758 373.728 659.149 392.122 638.07 400.866 619.676 393.257 617.926 392.521 616.235 391.649 614.62 390.651 629.569 389.447 642.571 379.939 648.25 366.059 653.961 352.229 651.505 336.37 641.879 324.914ZM636.2 322C652.068 335.786 653.755 359.825 639.969 375.693 632.738 384.016 622.253 388.794 611.228 388.791 610.353 388.791 609.477 388.761 608.6 388.7 611.677 391.36 615.152 393.52 618.9 395.1 638.357 403.028 660.558 393.681 668.485 374.223 676.351 354.919 667.216 332.88 648 324.8 644.237 323.257 640.255 322.312 636.2 322Z" fill="#FFFFFF" fill-rule="nonzero" fill-opacity="1"/></g></svg>