<svg width="329" height="328" xmlns="http://www.w3.org/2000/svg" xmlns:xlink="http://www.w3.org/1999/xlink" xml:space="preserve" overflow="hidden"><defs><clipPath id="clip0"><rect x="60" y="32" width="329" height="328"/></clipPath><clipPath id="clip1"><rect x="61" y="32" width="328" height="328"/></clipPath><clipPath id="clip2"><rect x="61" y="32" width="328" height="328"/></clipPath><clipPath id="clip3"><rect x="61" y="32" width="328" height="328"/></clipPath></defs><g clip-path="url(#clip0)" transform="translate(-60 -32)"><g clip-path="url(#clip1)"><g clip-path="url(#clip2)"><g clip-path="url(#clip3)"><path d="M225 148.167C198.582 148.167 177.167 169.582 177.167 196 177.167 222.418 198.582 243.833 225 243.833 251.418 243.833 272.833 222.418 272.833 196 272.805 169.594 251.406 148.195 225 148.167ZM225 237C202.356 237 184 218.644 184 196 184 173.356 202.356 155 225 155 247.644 155 266 173.356 266 196 265.975 218.633 247.633 236.975 225 237Z" fill="#000000" fill-rule="nonzero" fill-opacity="1"/><path d="M221.583 96.9167 228.417 96.9167 228.417 134.5 221.583 134.5Z" fill="#000000" fill-rule="nonzero" fill-opacity="1"/><path d="M221.583 257.5 228.417 257.5 228.417 295.083 221.583 295.083Z" fill="#000000" fill-rule="nonzero" fill-opacity="1"/><path d="M286.5 192.583 324.083 192.583 324.083 199.417 286.5 199.417Z" fill="#000000" fill-rule="nonzero" fill-opacity="1"/><path d="M125.917 192.583 163.5 192.583 163.5 199.417 125.917 199.417Z" fill="#000000" fill-rule="nonzero" fill-opacity="1"/><path d="M266.072 150.097 292.647 123.522 297.479 128.354 270.904 154.929Z" fill="#000000" fill-rule="nonzero" fill-opacity="1"/><path d="M152.523 263.646 179.098 237.071 183.93 241.903 157.354 268.478Z" fill="#000000" fill-rule="nonzero" fill-opacity="1"/><path d="M266.072 241.903 270.904 237.071 297.479 263.648 292.647 268.479Z" fill="#000000" fill-rule="nonzero" fill-opacity="1"/><path d="M152.523 128.355 157.355 123.523 183.929 150.099 179.097 154.931Z" fill="#000000" fill-rule="nonzero" fill-opacity="1"/></g></g></g></g></svg>